<svg xmlns="http://www.w3.org/2000/svg" version="1.1" xmlns:xlink="http://www.w3.org/1999/xlink" xmlns:svgjs="http://svgjs.dev/svgjs" width="100%" height="100%" viewBox="0 0 1000 600"><rect width="1000" height="600" x="0" y="0" fill="rgba(249, 250, 251, 1)"/><g><rect width="333.3333333333333" height="333.3333333333333" rx="13.333333333333334" ry="13.333333333333334" y="267.8246228864019" fill="#3d155f" transform="matrix(0.5089526881921733,0,0,0.5089526881921733,0,78.86449004927461)" x="245.6024017333984"/><path d="M349.01183922827676 375.53976149151333L310.09292141626474 375.53976149151333L310.09292141626474 424.6637116321061Q314.11901636233495 424.6637116321061 326.7564810541664 424.8594245808734Q339.3939457459979 425.05513752964066 346.27185794553446 425.05513752964066L346.27185794553446 425.05513752964066Q365.03234203451444 425.05513752964066 372.4135161023098 418.8202821617681Q379.7946901701052 412.58542679389546 379.7946901701052 399.02531534358957L379.7946901701052 399.02531534358957Q379.7946901701052 387.1147844614652 372.7210650218013 381.32727297648927Q365.61948088081635 375.53976149151333 349.01183922827676 375.53976149151333L349.01183922827676 375.53976149151333ZM379.4871412506137 456.03370142023647L403.2802440221814 507.33845298995055L383.62507216740806 507.33845298995055L363.5784744151002 461.7373359271693Q355.4144485522356 443.34031874304287 353.1497701450711 439.62177271646414L353.1497701450711 439.62177271646414Q345.96430902604305 440.0970755920419 336.1507025949969 440.0970755920419L336.1507025949969 440.0970755920419L310.09292141626474 439.31422379697267L310.09292141626474 507.33845298995055L292.7024279686559 507.33845298995055L292.7024279686559 360.3021104803448L339.1982327972306 360.3021104803448Q347.250422689371 360.3021104803448 353.42936007188155 360.69353637787947Q359.6362564470731 361.08496227541406 365.7872348369026 362.11944500461266Q371.910254234051 363.15392773381126 376.43961104838 364.97126225807904Q380.968967862709 366.7885967823469 384.88322683805507 369.6683730284943Q388.8254448060821 372.57610826732275 391.22991817665184 376.602203213393Q393.6343915472215 380.62829815946316 395.0323411812737 386.19213770299075Q396.40233182264484 391.75597724651834 396.40233182264484 398.7177664240981L396.40233182264484 398.7177664240981Q396.40233182264484 412.4735908231713 389.16095271825463 422.3990332249416Q381.9475326065455 432.35243461939297 368.66701108305006 436.18281661669585L368.66701108305006 436.18281661669585Q368.66701108305006 436.37852956546317 370.6520995634041 439.7056496945073Q372.60922905107714 443.0607288162324 375.3212513411383 447.92559354273396Q378.0053146385184 452.79045826923544 379.4871412506137 456.03370142023647L379.4871412506137 456.03370142023647ZM490.76393212116534 374.44936077695263L490.76393212116534 374.44936077695263Q474.35200341739295 374.44936077695263 462.49739052063074 382.4176736910499Q450.6427776238684 390.3580276124662 444.85526613889255 403.83426208472895Q439.06775465391655 417.3104965569917 439.06775465391655 434.7848669826437L439.06775465391655 434.7848669826437Q439.06775465391655 447.86967555737186 442.19916183419343 458.6338877395735Q445.3585280071513 469.39809992177504 451.649301360386 477.5062077992776Q457.9400747136207 485.61431567678005 468.0053120787962 490.08775450574694Q478.07054944397174 494.56119333471383 491.1553580186999 494.56119333471383L491.1553580186999 494.56119333471383Q507.95871262000685 494.56119333471383 525.9363449139175 485.8100286255474L525.9363449139175 485.8100286255474L528.7881621673839 500.26482784164665Q514.1656089951985 509.49129542639093 489.1982285310269 509.49129542639093L489.1982285310269 509.49129542639093Q472.7583408345735 509.49129542639093 459.75740923788845 504.0392918535875Q446.7285186485224 498.58728828078404 438.22898487348533 488.6059278936517Q429.7294510984482 478.6245675065193 425.2839712621623 464.812825122084Q420.8664504185575 451.0290417303297 420.8664504185575 434.11385115829864L420.8664504185575 434.11385115829864Q420.8664504185575 417.7857994325695 425.67539715969696 404.02997503349627Q430.5123028935174 390.2741506344231 439.29142659536495 380.40462621801487Q448.0985092898935 370.5071428089256 461.26719484266476 364.9992212507601Q474.43588039543613 359.49129969259457 490.56821917239796 359.49129969259457L490.56821917239796 359.49129969259457Q515.0323377683108 359.49129969259457 531.8356923696176 370.3114298601583L531.8356923696176 370.3114298601583L525.1534931188482 384.1790902299557Q509.0491133345675 374.44936077695263 490.76393212116534 374.44936077695263Z " fill="white" transform="matrix(0.5089526881921733,0,0,0.5089526881921733,0,78.86449004927461)"/><path d="M704.1633909103299 374.71803541731924L675.207629125185 374.71803541731924L675.207629125185 411.26636404986215Q678.2030527581311 411.26636404986215 687.6053547171006 411.4119749209081Q697.00765667607 411.5575857919541 702.1248387156862 411.5575857919541L702.1248387156862 411.5575857919541Q716.0826807830944 411.5575857919541 721.5742907768288 406.9188394714891Q727.0659007705632 402.28009315102406 727.0659007705632 392.19133994283777L727.0659007705632 392.19133994283777Q727.0659007705632 383.32987836203904 721.803107859901 379.02395688967914Q716.5195133962324 374.71803541731924 704.1633909103299 374.71803541731924L704.1633909103299 374.71803541731924ZM726.8370836874909 434.6057065232333L744.5392052960817 472.7765562902887L729.9157135324632 472.7765562902887L715.0010000267528 438.8492233365736Q708.9269465488345 425.1618014582507 707.2420207553023 422.39519490837694L707.2420207553023 422.39519490837694Q701.896021632614 422.7488213094886 694.5946765273079 422.7488213094886L694.5946765273079 422.7488213094886L675.207629125185 422.16637782530466L675.207629125185 472.7765562902887L662.2690631550987 472.7765562902887L662.2690631550987 363.38118902873873L696.862045805024 363.38118902873873Q702.8528930709161 363.38118902873873 707.450036285368 363.6724107708307Q712.0679810528264 363.9636325129227 716.6443227142718 364.73328997416576Q721.1998628227105 365.5029474354088 724.5697144097749 366.8550483808359Q727.9395659968392 368.2071493262629 730.8517834177588 370.3497092859396Q733.7848023916853 372.51307079862283 735.5737359502501 375.50849443156886Q737.3626695088152 378.5039180645149 738.4027471591437 382.6434271128223Q739.4220232564656 386.7829361611296 739.4220232564656 391.9625228597655L739.4220232564656 391.9625228597655Q739.4220232564656 402.19688693899775 734.0344210277641 409.58143825633Q728.6676203520691 416.9867911266688 718.7868826739485 419.83660388856885L718.7868826739485 419.83660388856885Q718.7868826739485 419.98221475961486 720.2637929374149 422.45759956739664Q721.7199016478747 424.95378592818497 723.7376522895121 428.5732561513281Q725.7346013781428 432.19272637447125 726.8370836874909 434.6057065232333L726.8370836874909 434.6057065232333ZM824.6875890303947 472.7765562902887L762.1581206926462 472.7765562902887L762.1581206926462 364.60848065612635L824.1675502052304 364.60848065612635L823.6683129330728 375.79971617366084L774.8054649206406 375.79971617366084L774.8054649206406 411.20395939084244L821.2553327843107 411.20395939084244L821.2553327843107 422.2495840373309L774.8054649206406 422.2495840373309L774.8054649206406 461.5853207727542L825.2700325145787 461.5853207727542L824.6875890303947 472.7765562902887ZM839.8935242781972 465.45440963197615L843.7002084783994 454.9288238106519Q860.591069519734 463.27024656628635 879.8949107098306 463.27024656628635L879.8949107098306 463.27024656628635Q903.6710857963398 463.27024656628635 903.6710857963398 441.6158298864473L903.6710857963398 441.6158298864473Q903.6710857963398 434.6057065232333 899.9060047021507 430.25818194486027Q896.1409236079616 425.8898558134806 886.1977812708212 423.41447100569883L886.1977812708212 423.41447100569883L864.6889754620282 418.0060672239907Q840.0391351492432 411.7864028750264 840.0391351492432 391.6713011176735L840.0391351492432 391.6713011176735Q840.0391351492432 376.23654878679883 850.6479271825937 368.74798970443373Q861.2567192159443 361.25943062206863 879.9781169218569 361.25943062206863L879.9781169218569 361.25943062206863Q889.7756483879513 361.25943062206863 898.3250866736514 363.38118902873873Q906.8953265123581 365.5029474354088 912.6573566951779 369.0808145525388L912.6573566951779 369.0808145525388L909.0170849190282 379.39838484379743Q904.1079184094777 376.6733813999368 896.0161142899221 374.5724245462732Q887.9451117233731 372.45066613960313 879.686895179765 372.45066613960313L879.686895179765 372.45066613960313Q853.2065182024018 372.45066613960313 853.2065182024018 390.7976358913976L853.2065182024018 390.7976358913976Q853.2065182024018 397.0173002403619 857.2628210386829 400.782381334551Q861.3191238749639 404.5474624287401 869.4525311005327 406.52360996436425L869.4525311005327 406.52360996436425L889.9836639180169 411.4951811329344Q903.1510469711756 414.6362156369264 909.9531548043238 421.54233123510755Q916.7552626374721 428.46924838629525 916.7552626374721 441.17899727330934L916.7552626374721 441.17899727330934Q916.7552626374721 457.7162319135322 906.6249063232726 466.07845622217326Q896.4945500090732 474.46148208382084 879.104451695581 474.46148208382084L879.104451695581 474.46148208382084Q866.0826795134684 474.46148208382084 855.9523231992689 471.79888329897994Q845.8219668850695 469.11548296113244 839.8935242781972 465.45440963197615L839.8935242781972 465.45440963197615ZM969.258382426054 375.79971617366084L969.258382426054 472.7765562902887L956.5486335390399 472.7765562902887L956.5486335390399 375.79971617366084L923.2661487285284 375.79971617366084L923.2661487285284 364.60848065612635L1002.5408672365654 364.60848065612635L1002.5408672365654 375.79971617366084L969.258382426054 375.79971617366084ZM1044.081568590685 369.22642542358483L1044.081568590685 369.22642542358483Q1036.4682001902806 369.22642542358483 1033.6599905343937 373.615553107971Q1030.8517808785068 378.00468079235725 1030.8517808785068 388.82148835577345L1030.8517808785068 388.82148835577345L1030.8517808785068 392.54496634394945L1050.1556220686034 392.54496634394945L1050.1556220686034 401.6144434548138L1030.8517808785068 401.6144434548138L1030.8517808785068 472.7765562902887L1018.6204677106439 472.7765562902887L1018.6204677106439 401.6144434548138L1005.6194970815377 401.6144434548138L1006.6387731788598 393.5850439942779L1018.6204677106439 392.54496634394945L1018.6204677106439 388.9670992268194Q1018.7660785816898 373.469942236925 1024.4449025524837 366.4806204267176Q1030.1029249702706 359.4912986165102 1042.7710707512715 359.4912986165102L1042.7710707512715 359.4912986165102Q1047.6594357078152 359.4912986165102 1054.7527652830554 360.59378092585837L1054.7527652830554 360.59378092585837L1053.941504715799 370.183296861887Q1047.4514201777497 369.22642542358483 1044.081568590685 369.22642542358483ZM1059.7243364516257 446.00495757083354L1059.7243364516257 446.00495757083354L1059.7243364516257 392.54496634394945L1072.0180542785083 392.54496634394945L1072.0180542785083 446.1505684418795Q1072.0180542785083 451.41336135254164 1073.5157660949812 455.0744346816979Q1075.0134779114542 458.7355080108541 1077.821687567341 460.7532586524914Q1080.6506987762345 462.7502077411221 1084.1869627873516 463.6446745204046Q1087.7440283514752 464.5183397466805 1092.3411715659267 464.5183397466805L1092.3411715659267 464.5183397466805Q1101.8474812899294 464.5183397466805 1107.1518773066045 460.33722759236Q1112.4562733232797 456.1769169910461 1112.4562733232797 446.1505684418795L1112.4562733232797 446.1505684418795L1112.4562733232797 392.54496634394945L1124.7499911501623 392.54496634394945L1124.7499911501623 446.00495757083354Q1124.7499911501623 452.16221726077816 1122.9818591446042 457.050582217322Q1121.2345286920522 461.9597487268725 1118.259906612113 465.2047909958973Q1115.3060860851797 468.4706348179288 1111.1457754838657 470.5923932245989Q1106.9646633295451 472.6933500782624 1102.3259170090805 473.6502215165646Q1097.6871706886154 474.6070929548668 1092.3411715659267 474.6070929548668L1092.3411715659267 474.6070929548668Q1087.0783786552647 474.6070929548668 1082.3980292287865 473.6502215165646Q1077.7176798023083 472.6933500782624 1073.5157660949812 470.5507901185857Q1069.3138523876542 468.38742860590247 1066.2768256486952 465.1423863368776Q1063.2397989097358 461.87654251484616 1061.4924684571843 456.98817755830225Q1059.7243364516257 452.07901104875185 1059.7243364516257 446.00495757083354ZM1164.5225604987236 474.23266500074857L1164.5225604987236 474.23266500074857Q1152.8320877090314 474.23266500074857 1147.9645243054943 467.95059599276453Q1143.0969609019567 461.66852698478044 1143.0969609019567 446.0881637828598L1143.0969609019567 446.0881637828598L1143.0969609019567 361.4050414931146L1155.2450678577934 360.6769871378847L1155.2450678577934 441.2622034853356Q1155.2450678577934 446.23377465390575 1155.3490756228266 449.2291982868518Q1155.4530833878594 452.22462191979787 1155.8899160009973 455.11603778771104Q1156.3267486141353 458.0074536556242 1157.0756045223716 459.4635623660841Q1157.8036588776017 460.919671076544 1159.1765613760354 462.126161150925Q1160.5702654274755 463.33265122530605 1162.5048098570865 463.74868228543744Q1164.460155839704 464.1439117925623 1167.309968601604 464.1439117925623L1167.309968601604 464.1439117925623Q1169.6397425383398 464.1439117925623 1176.5250565835145 463.27024656628635L1176.5250565835145 463.27024656628635L1177.169904726718 473.00537337336095Q1169.6397425383398 474.23266500074857 1164.5225604987236 474.23266500074857ZM1271.6713600355642 373.906774850063L1271.6713600355642 373.906774850063Q1259.4400468677009 373.906774850063 1250.6409899459222 379.83521745693537Q1241.8211314711366 385.74285851080117 1237.5152099987768 395.7692070599677Q1233.1884869734104 405.79555560913434 1233.1884869734104 418.79652623824035L1233.1884869734104 418.79652623824035Q1233.1884869734104 428.531653045315 1235.5390624631527 436.5402509528443Q1237.8688363998886 444.5488488603736 1242.5491858263663 450.58129923227887Q1247.229535252845 456.6137496041841 1254.7388958882166 459.9419980852352Q1262.2274549705812 463.27024656628635 1271.962581777656 463.27024656628635L1271.962581777656 463.27024656628635Q1284.4643151346045 463.27024656628635 1297.8397137178285 456.75936047523004L1297.8397137178285 456.75936047523004L1299.9614721244989 467.51376337962654Q1289.0614583490565 474.3782758717946 1270.4856715141896 474.3782758717946L1270.4856715141896 474.3782758717946Q1258.2751598993332 474.3782758717946 1248.5816361982716 470.32197303551345Q1238.908914050217 466.2656701992324 1232.564440383213 458.839515775887Q1226.240768269216 451.41336135254164 1222.954122894178 441.1373941672962Q1219.66747751914 430.8822285350574 1219.66747751914 418.2972889660827L1219.66747751914 418.2972889660827Q1219.66747751914 406.149182010246 1223.2453446362697 395.9148179310137Q1226.8232117533998 385.6804538517814 1233.3757009504693 378.3375056404623Q1239.9281901475388 370.9737558761367 1249.7257216136331 366.87584993384246Q1259.5232530797275 362.7779439915482 1271.5049476115114 362.7779439915482L1271.5049476115114 362.7779439915482Q1289.7271080452665 362.7779439915482 1302.228841402215 370.8281450050907L1302.228841402215 370.8281450050907L1297.2572702336447 381.14571529634924Q1285.2547741488543 373.906774850063 1271.6713600355642 373.906774850063ZM1325.193755921468 432.8375745176749L1325.193755921468 432.8375745176749Q1325.193755921468 447.1074398801817 1331.517428035465 455.698481271895Q1337.8411001494624 464.28952266360824 1349.9892071052986 464.28952266360824L1349.9892071052986 464.28952266360824Q1361.970901637083 464.28952266360824 1368.0865582210145 455.74008437790815Q1374.1814132519394 447.190646092208 1374.1814132519394 432.6919636466289L1374.1814132519394 432.6919636466289Q1374.1814132519394 418.0060672239907 1368.148962880034 409.56063670332344Q1362.1165125081293 401.11520618265615 1349.7603900222266 401.11520618265615L1349.7603900222266 401.11520618265615Q1337.7786954904427 401.11520618265615 1331.4758249294518 409.74785068038256Q1325.193755921468 418.3596936251024 1325.193755921468 432.8375745176749ZM1386.8495590329403 432.6295589876092L1386.8495590329403 432.6295589876092Q1386.8495590329403 451.2677504814956 1376.8856151427935 462.8750170591615Q1366.9424728056533 474.46148208382084 1349.4067636211148 474.46148208382084L1349.4067636211148 474.46148208382084Q1332.5159025797802 474.46148208382084 1322.531157136627 462.7502077411221Q1312.5464116934736 451.05973495142996 1312.5464116934736 432.6919636466289L1312.5464116934736 432.6919636466289Q1312.5464116934736 413.9705659407162 1322.5519586896335 402.42570402207Q1332.5783072388003 390.8600405504173 1350.0516117643187 390.8600405504173L1350.0516117643187 390.8600405504173Q1367.2336945477455 390.8600405504173 1377.052027566846 402.4673071280832Q1386.8495590329403 414.05377215274245 1386.8495590329403 432.6295589876092ZM1425.6652569431994 474.23266500074857L1425.6652569431994 474.23266500074857Q1413.9747841535072 474.23266500074857 1409.10722074997 467.95059599276453Q1404.2396573464325 461.66852698478044 1404.2396573464325 446.0881637828598L1404.2396573464325 446.0881637828598L1404.2396573464325 361.4050414931146L1416.3877643022693 360.6769871378847L1416.3877643022693 441.2622034853356Q1416.3877643022693 446.23377465390575 1416.491772067302 449.2291982868518Q1416.5957798323352 452.22462191979787 1417.0534139984798 455.11603778771104Q1417.4902466116177 458.0074536556242 1418.2183009668474 459.4635623660841Q1418.9463553220776 460.919671076544 1420.3400593735178 462.126161150925Q1421.733763424958 463.33265122530605 1423.6683078545689 463.74868228543744Q1425.6028522841798 464.1439117925623 1428.4526650460798 464.1439117925623L1428.4526650460798 464.1439117925623Q1430.8032405358222 464.1439117925623 1437.6677530279903 463.27024656628635L1437.6677530279903 463.27024656628635L1438.3334027242004 473.00537337336095Q1430.8032405358222 474.23266500074857 1425.6652569431994 474.23266500074857ZM1467.2891645093455 474.23266500074857L1467.2891645093455 474.23266500074857Q1455.5778901666467 474.23266500074857 1450.7311283161157 467.95059599276453Q1445.8635649125786 461.66852698478044 1445.8635649125786 446.0881637828598L1445.8635649125786 446.0881637828598L1445.8635649125786 361.4050414931146L1457.9908703154088 360.6769871378847L1457.9908703154088 441.2622034853356Q1457.9908703154088 446.23377465390575 1458.115679633448 449.2291982868518Q1458.2196873984808 452.22462191979787 1458.6565200116188 455.11603778771104Q1459.0933526247568 458.0074536556242 1459.821406979987 459.4635623660841Q1460.549461335217 460.919671076544 1461.9431653866573 462.126161150925Q1463.336869438097 463.33265122530605 1465.271413867708 463.74868228543744Q1467.2059582973193 464.1439117925623 1470.0557710592193 464.1439117925623L1470.0557710592193 464.1439117925623Q1472.4063465489617 464.1439117925623 1479.2708590411294 463.27024656628635L1479.2708590411294 463.27024656628635L1479.9365087373399 473.00537337336095Q1472.4063465489617 474.23266500074857 1467.2891645093455 474.23266500074857ZM1533.583713941283 407.35567208462703Q1528.1961117125816 400.96959531161014 1518.8354128596252 400.96959531161014Q1509.4747140066688 400.96959531161014 1503.5670729528028 407.5844891676993Q1497.6386303459303 414.19938302378847 1496.6193542486085 425.68184028341494L1496.6193542486085 425.68184028341494L1538.9505146169781 425.68184028341494Q1538.9505146169781 413.76255041065053 1533.583713941283 407.35567208462703ZM1521.2483930083872 474.46148208382084L1521.2483930083872 474.46148208382084Q1503.7750884828683 474.46148208382084 1493.7279383806954 463.33265122530605Q1483.6599867255159 452.22462191979787 1483.6599867255159 432.92078072970116L1483.6599867255159 432.92078072970116Q1483.6599867255159 414.2617876828082 1493.3951135325906 402.67532265814884Q1503.1094387866583 391.08885763348957 1518.981023730671 390.8600405504173L1518.981023730671 390.8600405504173Q1533.9165387893881 390.8600405504173 1542.6531910521471 401.073603076643Q1551.3898433149066 411.26636404986215 1551.3898433149066 428.30283596224274L1551.3898433149066 428.30283596224274Q1551.3898433149066 429.1973027415252 1551.3482402088935 431.527076678261Q1551.3066371028804 433.87765216800335 1551.3066371028804 434.8969282653253L1551.3066371028804 434.8969282653253L1496.2449262944901 434.8969282653253Q1496.4737433775626 448.5635485906416 1503.2966527637177 456.21852009705924Q1510.1403637028789 463.8526900504703 1521.6852256215252 463.8526900504703L1521.6852256215252 463.8526900504703Q1534.4157760615458 463.8526900504703 1547.208731160586 457.13378842934833L1547.208731160586 457.13378842934833L1549.1224740371904 466.99372455446235Q1536.911962422334 474.46148208382084 1521.2483930083872 474.46148208382084ZM1599.5038354191024 462.31337512798416L1599.5038354191024 462.31337512798416Q1605.7234997680666 462.31337512798416 1610.4038491945448 460.1292120622943Q1615.084198621023 457.92424744359795 1617.705194299851 454.055158584376Q1620.346991531685 450.186069725154 1621.6366878180925 445.4225140866496Q1622.9055825514934 440.67976000115164 1622.9055825514934 435.04253913637126L1622.9055825514934 435.04253913637126L1622.9055825514934 429.11409652949897Q1622.9055825514934 423.26886013465287 1621.5950847120794 418.33889207209586Q1620.2637853196588 413.38812245653224 1617.5387818757981 409.4774304912971Q1614.7929768789309 405.56673852606207 1610.2166352174854 403.3825754603722Q1605.6402935560404 401.17761084167586 1599.5870416311286 401.17761084167586L1599.5870416311286 401.17761084167586Q1594.532264250532 401.17761084167586 1590.3927552022246 403.0913537182803Q1586.2740477069242 404.9842950418781 1583.5906473690766 408.083726439857Q1580.9280485842355 411.20395939084244 1579.0559088136442 415.3226668861432Q1577.2045705960595 419.4621759344506 1576.3933100288036 423.7056927477908Q1575.5820494615473 427.94920956113106 1575.5820494615473 432.25513103349095L1575.5820494615473 432.25513103349095Q1575.5820494615473 436.49864784683115 1576.4765162408298 440.67976000115164Q1577.3501814671054 444.84007060246563 1579.2431227907036 448.79236567371385Q1581.156865667308 452.74466074496206 1583.8610675581617 455.698481271895Q1586.565269449016 458.65230179882786 1590.6215722852971 460.482838463406Q1594.6778751215784 462.31337512798416 1599.5038354191024 462.31337512798416ZM1594.24104250844 509.49129734688415L1580.72003305417 509.49129734688415L1579.6175507448215 498.4456727003957L1594.532264250532 498.4456727003957Q1600.7519285994963 498.4456727003957 1605.3490718139483 497.57200747411974Q1609.9670165814068 496.6983422478438 1613.0248448733728 494.6805916062066Q1616.1034747183448 492.66284096456934 1618.0172175949492 490.2082577097941Q1619.910158918547 487.77447600802543 1620.8878319098558 483.8637840427903Q1621.8863064541715 479.9530920775552 1622.2191313022763 476.10480477133984Q1622.531154597375 472.25651746512443 1622.531154597375 466.7025028123703L1622.531154597375 466.7025028123703L1622.531154597375 459.6091732371301Q1618.162828465995 465.9120437981207 1612.3799967301688 469.30269693819156Q1606.5971649943426 472.6933500782624 1597.6732987545242 472.6933500782624L1597.6732987545242 472.6933500782624Q1590.808786262356 472.6933500782624 1584.9843514205168 470.32197303551345Q1579.1807181316835 467.95059599276453 1575.1868199544224 463.99830092151626Q1571.2137233301673 460.04600585026805 1568.3847121212739 454.86641915163216Q1565.576502465387 449.6660308999898 1564.28680617898 444.11201624723566Q1563.017911445579 438.55800159448154 1563.017911445579 432.92078072970116L1563.017911445579 432.92078072970116Q1563.017911445579 424.14252536092874 1565.1604714052555 416.69556938457686Q1567.323832917939 409.2278118552183 1571.5673497312791 403.3825754603722Q1575.8108665446193 397.51653751251956 1582.7169821428006 394.18828903146846Q1589.6230977409818 390.8600405504173 1598.5469639808002 390.8600405504173L1598.5469639808002 390.8600405504173Q1606.4515541232963 390.8600405504173 1612.3383936241557 393.8970672893764Q1618.2252331250152 396.9340940283356 1622.9055825514934 403.23696458932625L1622.9055825514934 403.23696458932625L1622.9055825514934 392.54496634394945L1634.8248724242576 392.54496634394945L1634.8248724242576 466.99372455446235Q1634.8248724242576 472.1109065940785 1634.5752537881785 475.9591939002938Q1634.3048335990934 479.80748120650924 1633.3271606077847 484.4878306329874Q1632.349487616476 489.1681800594656 1630.6645618229436 492.5172300935233Q1628.9796360294113 495.8870816805876 1625.9426092904523 499.27773482065845Q1622.9055825514934 502.68918951373587 1618.7036688441658 504.76934481439287Q1614.5017551368392 506.84950011504986 1608.2820907878745 508.1807995074703Q1602.0624264389103 509.49129734688415 1594.24104250844 509.49129734688415L1594.24104250844 509.49129734688415ZM1701.4106435982872 407.35567208462703Q1696.043842922592 400.96959531161014 1686.6831440696355 400.96959531161014Q1677.3224452166796 400.96959531161014 1671.394002609807 407.5844891676993Q1665.4655600029346 414.19938302378847 1664.4462839056127 425.68184028341494L1664.4462839056127 425.68184028341494L1706.7774442739824 425.68184028341494Q1706.7774442739824 413.76255041065053 1701.4106435982872 407.35567208462703ZM1689.096124218398 474.46148208382084L1689.096124218398 474.46148208382084Q1671.6020181398726 474.46148208382084 1661.5548680376996 463.33265122530605Q1651.5077179355267 452.22462191979787 1651.5077179355267 432.92078072970116L1651.5077179355267 432.92078072970116Q1651.5077179355267 414.2617876828082 1661.2220431895944 402.67532265814884Q1670.957169996669 391.08885763348957 1686.8287549406818 390.8600405504173L1686.8287549406818 390.8600405504173Q1701.743468446392 390.8600405504173 1710.4801207091514 401.073603076643Q1719.2167729719108 411.26636404986215 1719.2167729719108 428.30283596224274L1719.2167729719108 428.30283596224274Q1719.2167729719108 429.1973027415252 1719.1751698658977 431.527076678261Q1719.1543683128912 433.87765216800335 1719.1543683128912 434.8969282653253L1719.1543683128912 434.8969282653253L1664.0718559514944 434.8969282653253Q1664.300673034567 448.5635485906416 1671.144383973728 456.21852009705924Q1677.9672933598831 463.8526900504703 1689.532956831536 463.8526900504703L1689.532956831536 463.8526900504703Q1702.2635072715566 463.8526900504703 1715.0564623705968 457.13378842934833L1715.0564623705968 457.13378842934833L1716.9494036941946 466.99372455446235Q1704.7388920793383 474.46148208382084 1689.096124218398 474.46148208382084Z " fill="#3d155f" transform="matrix(0.5089526881921733,0,0,0.5089526881921733,0,78.86449004927461)"/></g></svg>